<svg width="22" height="18" viewBox="0 0 22 18" fill="none" xmlns="http://www.w3.org/2000/svg">
<path d="M3.49044 8.63526C2.0568 7.04182 2.07466 4.82704 3.43758 3.46405C4.14248 2.75942 5.06768 2.4066 5.99497 2.4066C6.92234 2.4066 7.84747 2.75916 8.55229 3.46398L9.75135 4.66304C9.97044 4.88213 10.2438 5.0118 10.5247 5.05894C10.9857 5.15344 11.4866 5.02313 11.8468 4.66383L11.8473 4.66341L13.0469 3.46405C14.4573 2.0542 16.7525 2.05457 18.162 3.46398C19.5249 4.82696 19.5428 7.04173 18.1099 8.63485C16.6138 10.2969 12.6138 13.6576 10.7995 15.1587C8.98522 13.658 4.98617 10.2975 3.49044 8.63526ZM3.49044 8.63526L3.11874 8.96969L3.49044 8.63526ZM19.8646 1.76164C22.1651 4.06249 22.1801 7.70959 19.8993 10.245C17.8181 12.5573 11.6813 17.5523 11.4209 17.7637C11.2385 17.9121 11.0182 17.9871 10.7995 17.977L10.7998 2.30681L11.3453 1.76164C13.6938 -0.586895 17.5154 -0.586895 19.8646 1.76164ZM19.8646 1.76164L19.5111 2.11524C19.5111 2.11522 19.5111 2.11519 19.511 2.11517M19.8646 1.76164L19.511 2.11517M19.511 2.11517C21.6092 4.21367 21.6444 7.55736 19.5276 9.91055C17.4793 12.1863 11.3818 17.1514 11.1058 17.3755L11.1054 17.3758C11.0117 17.452 10.9104 17.4816 10.8227 17.4775L10.7992 17.4764L10.781 17.4773L10.7788 17.4773C10.6781 17.4773 10.5778 17.4443 10.4934 17.3757L10.4932 17.3755C10.2172 17.1514 4.12041 12.1864 2.0727 9.91096C-0.0444984 7.55744 -0.00933692 4.21371 2.08918 2.11519L2.0892 2.11517C4.24247 -0.0383898 7.74778 -0.0383898 9.90105 2.11517L9.90107 2.11519L10.4462 2.66037L10.7997 3.01382L11.1533 2.66047L11.6987 2.1153L11.6988 2.11519C13.8521 -0.0380294 17.3571 -0.0381222 19.511 2.11517ZM18.8531 9.30388L18.8532 9.30375C20.6016 7.3601 20.6493 4.53711 18.8691 2.75687C17.0691 0.956914 14.1408 0.956646 12.34 2.7568L12.3399 2.75683L11.1407 3.95578C11.1406 3.95583 11.1406 3.95587 11.1405 3.95591C11.0274 4.06862 10.8696 4.11026 10.7214 4.07844L10.708 4.07557L10.6945 4.07344C10.6025 4.05888 10.5213 4.01879 10.4585 3.95594L9.2594 2.75687C8.35889 1.85637 7.17581 1.4066 5.99497 1.4066C4.81404 1.4066 3.63102 1.85675 2.73061 2.7568L2.73054 2.75687C0.950276 4.53714 0.998043 7.36016 2.74704 9.30411L2.74706 9.30413C4.40008 11.1412 8.89416 14.8855 10.4816 16.193L10.7995 16.4549L11.1174 16.193C12.7048 14.8852 17.1998 11.1406 18.8531 9.30388Z" fill="#F53811" stroke="#F53811"/>
</svg>
