<svg width="30" height="25" viewBox="0 0 30 25" fill="none" xmlns="http://www.w3.org/2000/svg">
<path d="M27.0877 3.14963C23.9555 0.0182538 18.86 0.0182538 15.7286 3.14963L15.0013 3.87653L14.2744 3.14963C11.143 0.0178302 6.04711 0.0178302 2.91573 3.14963C-0.152076 6.21744 -0.171997 11.0802 2.86953 14.4613C5.64361 17.5439 13.8251 24.2038 14.1723 24.4857C14.4079 24.6772 14.6915 24.7705 14.9733 24.7705C14.9826 24.7705 14.992 24.7705 15.0009 24.7701C15.2925 24.7836 15.5862 24.6836 15.8295 24.4857C16.1766 24.2038 24.359 17.5439 27.1339 14.4608C30.175 11.0802 30.1551 6.21744 27.0877 3.14963ZM25.2436 12.7599C23.0807 15.1627 17.1354 20.1183 15.0009 21.8769C12.8664 20.1188 6.92235 15.1636 4.75989 12.7604C2.63811 10.4021 2.61819 7.04352 4.71369 4.94802C5.7839 3.87823 7.18938 3.34291 8.59485 3.34291C10.0003 3.34291 11.4058 3.8778 12.476 4.94802L14.0748 6.54677C14.2651 6.73707 14.505 6.85067 14.7567 6.89051C15.1653 6.97824 15.6087 6.86423 15.9266 6.54719L17.5262 4.94802C19.667 2.80801 23.1493 2.80844 25.2889 4.94802C27.3844 7.04352 27.3645 10.4021 25.2436 12.7599Z" fill="#DA552D"/>
<path d="M15 23C13.8 22.6 4 14 2.5 7C5.7 0.599149 12.8333 3.49858 15.5 5.99894C23.5 -0.801064 27.1667 5.1656 28 8.99894C24 13.4989 16.2 23.4 15 23Z" fill="#DA552D" stroke="#DA552D"/>
</svg>
