<svg width="8" height="7" viewBox="0 0 8 7" fill="none" xmlns="http://www.w3.org/2000/svg">
<path d="M0.11776 1.99306C0.182539 1.91119 0.546412 1.42924 0.926324 0.922102L1.61713 0H2.26368H2.91027L2.88108 0.125224C2.86504 0.19412 2.71535 0.670516 2.54851 1.18393L2.24513 2.11742L1.12254 2.12967L0 2.14192L0.11776 1.99306Z" fill="white"/>
<path d="M2.67278 2.0605C2.68501 2.01669 2.84467 1.53547 3.02759 0.99118L3.36016 0.00154822L4.01957 0.000774111L4.67897 0L4.97768 0.876566C5.14201 1.3587 5.3048 1.84024 5.33943 1.94666L5.40248 2.14019H4.02655C2.73972 2.14019 2.65202 2.13504 2.67278 2.0605Z" fill="white"/>
<path d="M5.48913 1.14518C5.31295 0.597932 5.15507 0.11639 5.13831 0.0750887C5.11085 0.00746789 5.17438 0.00022768 5.77522 0.0022768L6.44262 0.00455359L7.21323 1.03576C7.63707 1.60296 7.99107 2.08345 7.99988 2.10358C8.00874 2.1237 7.5195 2.14019 6.91269 2.14019H5.80946L5.48913 1.14518Z" fill="white"/>
<path d="M3.63098 6.96531C3.59828 6.96349 0.0952663 2.61932 0.0690173 2.54805C0.0430572 2.47765 2.15738 2.49081 2.21402 2.5614C2.23916 2.59272 2.45084 3.21256 2.68443 3.93886C2.91802 4.66515 3.2333 5.64363 3.38506 6.1132C3.53683 6.58281 3.6475 6.96622 3.63098 6.96531Z" fill="white"/>
<path d="M4.07717 6.99978C4.05136 6.97542 2.66179 2.60994 2.66179 2.55334C2.66179 2.49669 5.33977 2.48216 5.37387 2.53863C5.39164 2.56804 5.15858 3.38705 4.2718 6.41091C4.17417 6.74373 4.08661 7.00871 4.07717 6.99978Z" fill="white"/>
<path d="M4.55659 6.95215C4.54171 6.93813 5.72975 2.79841 5.81669 2.5614C5.84371 2.48767 7.95976 2.47788 7.95976 2.55147C7.95976 2.61007 4.58274 6.97692 4.55659 6.95215Z" fill="white"/>
</svg>
