<svg width="30" height="27" viewBox="0 0 30 27" fill="none" xmlns="http://www.w3.org/2000/svg">
<path d="M26.2714 23.5388L26.2713 23.5391C26.2314 23.8563 26.0769 24.1481 25.8371 24.3595C25.5972 24.571 25.2885 24.6876 24.9688 24.6875C24.9687 24.6875 24.9687 24.6875 24.9687 24.6875H9.5625H9.3125V24.4375V11.9385V11.8795L9.33889 11.8267L14.2144 2.0743L14.2998 1.90347L14.4871 1.94096C15.2664 2.09693 15.9676 2.51811 16.4713 3.13283C16.975 3.74753 17.2502 4.51777 17.25 5.3125C17.25 5.31252 17.25 5.31255 17.25 5.31257V8.5C17.25 8.71549 17.3356 8.92215 17.488 9.07452C17.6404 9.2269 17.847 9.3125 18.0625 9.3125H26.5624C26.5624 9.3125 26.5625 9.3125 26.5625 9.3125C26.7487 9.31245 26.9328 9.35202 27.1026 9.4286C27.2723 9.50519 27.4239 9.61703 27.5471 9.75669C27.6703 9.89636 27.7624 10.0606 27.8172 10.2386C27.872 10.4166 27.8883 10.6041 27.8651 10.7888L26.2714 23.5388ZM26.2714 23.5388L27.8651 10.7891L26.2714 23.5388ZM27.369 10.7266L27.369 10.7268L25.7752 23.4766C25.7752 23.4766 25.7752 23.4767 25.7752 23.4768C25.7504 23.6731 25.6549 23.8536 25.5064 23.9845C25.358 24.1154 25.1668 24.1876 24.9688 24.1875H24.9688H9.8125V11.9975L14.5734 2.47437C15.1652 2.63307 15.6943 2.97341 16.0846 3.44974C16.515 3.97505 16.7502 4.63328 16.75 5.31243V5.3125V8.5C16.75 8.8481 16.8883 9.18194 17.1344 9.42808C17.3806 9.67422 17.7144 9.8125 18.0625 9.8125H26.5625H26.5626C26.6779 9.81246 26.7919 9.83696 26.897 9.88437C27.0021 9.93178 27.0959 10.001 27.1721 10.0875C27.2484 10.1739 27.3054 10.2756 27.3394 10.3858C27.3733 10.496 27.3834 10.6122 27.369 10.7266ZM28.7657 8.68135L28.7657 8.68139C29.0416 8.99395 29.2479 9.36168 29.3707 9.76011C29.4935 10.1585 29.5301 10.5786 29.4781 10.9922L29.478 10.9924L27.8843 23.7422C27.8843 23.7423 27.8843 23.7424 27.8843 23.7424C27.7948 24.4524 27.4492 25.1052 26.9124 25.5785C26.3756 26.0517 25.6845 26.3127 24.9688 26.3125H24.9688H2.125C1.62772 26.3125 1.15081 26.115 0.799175 25.7633C0.447544 25.4117 0.25 24.9348 0.25 24.4375V12.75C0.25 12.2527 0.447544 11.7758 0.799175 11.4242C1.15081 11.0725 1.62772 10.875 2.125 10.875H7.84391H7.99843L8.06753 10.7368L13.0851 0.698906C13.0852 0.698875 13.0852 0.698843 13.0852 0.698811C13.1527 0.563865 13.2565 0.450397 13.3849 0.371125C13.5134 0.291835 13.6614 0.249892 13.8123 0.25H13.8125C15.1552 0.25 16.4428 0.783369 17.3922 1.73277C18.3416 2.68218 18.875 3.96984 18.875 5.3125V7.4375V7.6875H19.125H26.5625H26.5626C26.9793 7.68742 27.3912 7.77599 27.7711 7.94735C28.1509 8.1187 28.49 8.36891 28.7657 8.68135ZM2.125 12.5H1.875V12.75V24.4375V24.6875H2.125H7.4375H7.6875V24.4375V12.75V12.5H7.4375H2.125Z" fill="#F53811" stroke="#F53811" stroke-width="0.5"/>
</svg>
